<svg xmlns="http://www.w3.org/2000/svg" xmlns:xlink="http://www.w3.org/1999/xlink" width="500" zoomAndPan="magnify" viewBox="0 0 375 374.999991" height="500" preserveAspectRatio="xMidYMid meet" version="1.0"><defs><g/><clipPath id="18c5f09302"><path d="M 0 0 L 375 0 L 375 375 L 0 375 Z M 0 0 " clip-rule="nonzero"/></clipPath><clipPath id="c1444f2138"><rect x="0" width="375" y="0" height="375"/></clipPath></defs><rect x="-37.5" width="450" fill="#ffffff" y="-37.499999" height="449.999989" fill-opacity="1"/><rect x="-37.5" width="450" fill="#ffffff" y="-37.499999" height="449.999989" fill-opacity="1"/><g transform="matrix(1, 0, 0, 1, 0, 0)"><g clip-path="url(#c1444f2138)"><g clip-path="url(#18c5f09302)"><rect x="-82.5" width="540" fill="#f67464" height="539.999987" y="-82.499998" fill-opacity="1"/></g></g></g><g fill="#ffffff" fill-opacity="1"><g transform="translate(37.500002, 290.999981)"><g><path d="M 20.515625 0 L 20.515625 -214.75 L 63.875 -214.75 L 63.875 0 Z M 20.515625 0 "/></g></g><g transform="translate(120.849606, 290.999981)"><g><path d="M 22.265625 0 L 22.265625 -214.75 L 64.453125 -214.75 L 152.34375 -71.34375 L 152.34375 -214.75 L 192.625 -214.75 L 192.625 0 L 149.125 0 L 62.546875 -140.046875 L 62.546875 0 Z M 22.265625 0 "/></g></g></g></svg>