<svg xmlns="http://www.w3.org/2000/svg" xmlns:xlink="http://www.w3.org/1999/xlink" width="1761" zoomAndPan="magnify" viewBox="0 0 1320.75 165.750002" height="221" preserveAspectRatio="xMidYMid meet" version="1.0"><defs><g/><clipPath id="06c7b809ff"><path d="M 6.074219 1.0625 L 165.984375 1.0625 L 165.984375 164.585938 L 6.074219 164.585938 Z M 6.074219 1.0625 " clip-rule="nonzero"/></clipPath><clipPath id="59ba348e97"><path d="M 0.0742188 0.0625 L 159.984375 0.0625 L 159.984375 163.585938 L 0.0742188 163.585938 Z M 0.0742188 0.0625 " clip-rule="nonzero"/></clipPath><clipPath id="46d91aa31f"><rect x="0" width="160" y="0" height="164"/></clipPath><clipPath id="3bd7626669"><path d="M 1268.652344 1.0625 L 1318.078125 1.0625 L 1318.078125 49.363281 L 1268.652344 49.363281 Z M 1268.652344 1.0625 " clip-rule="nonzero"/></clipPath><clipPath id="5d95da4cd4"><path d="M 6 0 L 1262 0 L 1262 165.5 L 6 165.5 Z M 6 0 " clip-rule="nonzero"/></clipPath><clipPath id="23c9de0980"><rect x="0" width="1256" y="0" height="166"/></clipPath></defs><g clip-path="url(#06c7b809ff)"><g transform="matrix(1, 0, 0, 1, 6, 1)"><g clip-path="url(#46d91aa31f)"><g clip-path="url(#59ba348e97)"><path fill="#f67464" d="M 0.0742188 0.0625 L 159.984375 0.0625 L 159.984375 163.71875 L 0.0742188 163.71875 Z M 0.0742188 0.0625 " fill-opacity="1" fill-rule="nonzero"/></g></g></g></g><g clip-path="url(#3bd7626669)"><path fill="#ffffff" d="M 1289.792969 24.113281 L 1292.433594 24.113281 C 1295.515625 24.113281 1298.011719 23.085938 1298.011719 20.589844 C 1298.011719 18.386719 1296.398438 16.917969 1292.875 16.917969 C 1291.40625 16.917969 1290.378906 17.066406 1289.792969 17.210938 Z M 1289.644531 37.617188 L 1284.066406 37.617188 L 1284.066406 13.542969 C 1286.269531 13.25 1289.351562 12.808594 1293.316406 12.808594 C 1297.867188 12.808594 1299.921875 13.542969 1301.535156 14.714844 C 1303.003906 15.746094 1304.03125 17.503906 1304.03125 19.855469 C 1304.03125 22.789062 1301.828125 24.699219 1299.039062 25.578125 L 1299.039062 25.875 C 1301.390625 26.609375 1302.5625 28.515625 1303.296875 31.746094 C 1304.03125 35.417969 1304.617188 36.738281 1305.058594 37.617188 L 1299.1875 37.617188 C 1298.453125 36.738281 1298.011719 34.683594 1297.277344 31.746094 C 1296.839844 29.25 1295.371094 28.074219 1292.289062 28.074219 L 1289.644531 28.074219 Z M 1274.816406 25.140625 C 1274.816406 35.855469 1282.890625 44.371094 1293.609375 44.371094 C 1304.03125 44.519531 1311.960938 35.855469 1311.960938 25.285156 C 1311.960938 14.570312 1304.03125 5.90625 1293.316406 5.90625 C 1282.890625 5.90625 1274.816406 14.570312 1274.816406 25.140625 Z M 1318.125 25.140625 C 1318.125 38.644531 1307.261719 49.363281 1293.460938 49.363281 C 1279.664062 49.363281 1268.652344 38.644531 1268.652344 25.140625 C 1268.652344 11.632812 1279.664062 1.0625 1293.609375 1.0625 C 1307.261719 1.0625 1318.125 11.632812 1318.125 25.140625 " fill-opacity="1" fill-rule="nonzero"/></g><g clip-path="url(#5d95da4cd4)"><g transform="matrix(1, 0, 0, 1, 6, -0.00000000000000519)"><g clip-path="url(#23c9de0980)"><g fill="#ffffff" fill-opacity="1"><g transform="translate(1.228162, 138.987951)"><g><path d="M 10.859375 0 L 10.859375 -113.75 L 33.828125 -113.75 L 33.828125 0 Z M 10.859375 0 "/></g></g></g><g fill="#ffffff" fill-opacity="1"><g transform="translate(45.376891, 138.987951)"><g><path d="M 11.796875 0 L 11.796875 -113.75 L 34.140625 -113.75 L 80.6875 -37.78125 L 80.6875 -113.75 L 102.03125 -113.75 L 102.03125 0 L 78.984375 0 L 33.125 -74.171875 L 33.125 0 Z M 11.796875 0 "/></g></g></g><g fill="#ffffff" fill-opacity="1"><g transform="translate(160.132543, 138.987951)"><g><path d="M 11.71875 0 L 11.71875 -113.75 L 89.6875 -113.75 L 89.6875 -94.5 L 34.6875 -94.5 L 34.6875 -67.578125 L 82.171875 -67.578125 L 82.171875 -48.34375 L 34.6875 -48.34375 L 34.6875 0 Z M 11.71875 0 "/></g></g></g><g fill="#ffffff" fill-opacity="1"><g transform="translate(257.197658, 138.987951)"><g><path d="M 6.90625 -56.171875 C 6.90625 -67.765625 8.640625 -77.488281 12.109375 -85.34375 C 14.691406 -91.144531 18.21875 -96.34375 22.6875 -100.9375 C 27.164062 -105.539062 32.070312 -108.957031 37.40625 -111.1875 C 44.488281 -114.1875 52.660156 -115.6875 61.921875 -115.6875 C 78.679688 -115.6875 92.085938 -110.488281 102.140625 -100.09375 C 112.203125 -89.695312 117.234375 -75.238281 117.234375 -56.71875 C 117.234375 -38.351562 112.242188 -23.984375 102.265625 -13.609375 C 92.285156 -3.242188 78.941406 1.9375 62.234375 1.9375 C 45.316406 1.9375 31.863281 -3.21875 21.875 -13.53125 C 11.894531 -23.851562 6.90625 -38.066406 6.90625 -56.171875 Z M 30.578125 -56.953125 C 30.578125 -44.066406 33.550781 -34.300781 39.5 -27.65625 C 45.445312 -21.007812 53 -17.6875 62.15625 -17.6875 C 71.3125 -17.6875 78.820312 -20.984375 84.6875 -27.578125 C 90.5625 -34.171875 93.5 -44.066406 93.5 -57.265625 C 93.5 -70.296875 90.640625 -80.019531 84.921875 -86.4375 C 79.203125 -92.851562 71.613281 -96.0625 62.15625 -96.0625 C 52.6875 -96.0625 45.054688 -92.8125 39.265625 -86.3125 C 33.472656 -79.820312 30.578125 -70.035156 30.578125 -56.953125 Z M 30.578125 -56.953125 "/></g></g></g><g fill="#ffffff" fill-opacity="1"><g transform="translate(380.798584, 138.987951)"><g><path d="M 11.640625 0 L 11.640625 -113.75 L 59.984375 -113.75 C 72.140625 -113.75 80.96875 -112.726562 86.46875 -110.6875 C 91.976562 -108.644531 96.390625 -105.007812 99.703125 -99.78125 C 103.015625 -94.550781 104.671875 -88.578125 104.671875 -81.859375 C 104.671875 -73.328125 102.160156 -66.28125 97.140625 -60.71875 C 92.128906 -55.15625 84.628906 -51.648438 74.640625 -50.203125 C 79.609375 -47.304688 83.707031 -44.125 86.9375 -40.65625 C 90.175781 -37.1875 94.535156 -31.03125 100.015625 -22.1875 L 113.90625 0 L 86.4375 0 L 69.828125 -24.75 C 63.929688 -33.59375 59.894531 -39.164062 57.71875 -41.46875 C 55.550781 -43.769531 53.25 -45.347656 50.8125 -46.203125 C 48.382812 -47.054688 44.535156 -47.484375 39.265625 -47.484375 L 34.609375 -47.484375 L 34.609375 0 Z M 34.609375 -65.640625 L 51.59375 -65.640625 C 62.613281 -65.640625 69.492188 -66.101562 72.234375 -67.03125 C 74.972656 -67.96875 77.117188 -69.570312 78.671875 -71.84375 C 80.222656 -74.125 81 -76.972656 81 -80.390625 C 81 -84.210938 79.976562 -87.300781 77.9375 -89.65625 C 75.894531 -92.007812 73.007812 -93.5 69.28125 -94.125 C 67.425781 -94.375 61.84375 -94.5 52.53125 -94.5 L 34.609375 -94.5 Z M 34.609375 -65.640625 "/></g></g></g><g fill="#ffffff" fill-opacity="1"><g transform="translate(495.554213, 138.987951)"><g><path d="M 11.25 0 L 11.25 -113.75 L 45.625 -113.75 L 66.265625 -36.15625 L 86.671875 -113.75 L 121.125 -113.75 L 121.125 0 L 99.78125 0 L 99.78125 -89.546875 L 77.203125 0 L 55.09375 0 L 32.59375 -89.546875 L 32.59375 0 Z M 11.25 0 "/></g></g></g><g fill="#ffffff" fill-opacity="1"><g transform="translate(627.922828, 138.987951)"><g><path d="M 10.859375 0 L 10.859375 -113.75 L 33.828125 -113.75 L 33.828125 0 Z M 10.859375 0 "/></g></g></g><g fill="#ffffff" fill-opacity="1"><g transform="translate(672.071523, 138.987951)"><g><path d="M 64.484375 -41.828125 L 64.484375 -60.984375 L 113.984375 -60.984375 L 113.984375 -15.671875 C 109.171875 -11.015625 102.195312 -6.914062 93.0625 -3.375 C 83.9375 0.164062 74.691406 1.9375 65.328125 1.9375 C 53.429688 1.9375 43.0625 -0.554688 34.21875 -5.546875 C 25.375 -10.535156 18.726562 -17.671875 14.28125 -26.953125 C 9.832031 -36.242188 7.609375 -46.347656 7.609375 -57.265625 C 7.609375 -69.109375 10.085938 -79.632812 15.046875 -88.84375 C 20.015625 -98.050781 27.285156 -105.113281 36.859375 -110.03125 C 44.148438 -113.800781 53.226562 -115.6875 64.09375 -115.6875 C 78.207031 -115.6875 89.234375 -112.722656 97.171875 -106.796875 C 105.117188 -100.878906 110.226562 -92.695312 112.5 -82.25 L 89.6875 -77.984375 C 88.09375 -83.566406 85.082031 -87.972656 80.65625 -91.203125 C 76.226562 -94.441406 70.707031 -96.0625 64.09375 -96.0625 C 54.050781 -96.0625 46.066406 -92.878906 40.140625 -86.515625 C 34.222656 -80.148438 31.265625 -70.707031 31.265625 -58.1875 C 31.265625 -44.6875 34.265625 -34.5625 40.265625 -27.8125 C 46.265625 -21.0625 54.128906 -17.6875 63.859375 -17.6875 C 68.671875 -17.6875 73.492188 -18.628906 78.328125 -20.515625 C 83.160156 -22.410156 87.3125 -24.703125 90.78125 -27.390625 L 90.78125 -41.828125 Z M 64.484375 -41.828125 "/></g></g></g><g fill="#ffffff" fill-opacity="1"><g transform="translate(795.672449, 138.987951)"><g><path d="M 114.140625 0 L 89.15625 0 L 79.21875 -25.84375 L 33.75 -25.84375 L 24.359375 0 L 0 0 L 44.296875 -113.75 L 68.59375 -113.75 Z M 71.84375 -45 L 56.171875 -87.21875 L 40.8125 -45 Z M 71.84375 -45 "/></g></g></g><g fill="#ffffff" fill-opacity="1"><g transform="translate(910.428078, 138.987951)"><g><path d="M 11.484375 -113.75 L 53.453125 -113.75 C 62.921875 -113.75 70.140625 -113.023438 75.109375 -111.578125 C 81.785156 -109.609375 87.5 -106.113281 92.25 -101.09375 C 97.007812 -96.082031 100.628906 -89.941406 103.109375 -82.671875 C 105.597656 -75.398438 106.84375 -66.4375 106.84375 -55.78125 C 106.84375 -46.425781 105.675781 -38.359375 103.34375 -31.578125 C 100.5 -23.304688 96.441406 -16.609375 91.171875 -11.484375 C 87.179688 -7.609375 81.800781 -4.582031 75.03125 -2.40625 C 69.957031 -0.800781 63.179688 0 54.703125 0 L 11.484375 0 Z M 34.453125 -94.5 L 34.453125 -19.171875 L 51.59375 -19.171875 C 58.007812 -19.171875 62.640625 -19.53125 65.484375 -20.25 C 69.210938 -21.175781 72.300781 -22.753906 74.75 -24.984375 C 77.207031 -27.210938 79.210938 -30.875 80.765625 -35.96875 C 82.316406 -41.0625 83.09375 -48.003906 83.09375 -56.796875 C 83.09375 -65.585938 82.316406 -72.335938 80.765625 -77.046875 C 79.210938 -81.753906 77.039062 -85.425781 74.25 -88.0625 C 71.457031 -90.695312 67.914062 -92.484375 63.625 -93.421875 C 60.414062 -94.140625 54.128906 -94.5 44.765625 -94.5 Z M 34.453125 -94.5 "/></g></g></g><g fill="#ffffff" fill-opacity="1"><g transform="translate(1025.183798, 138.987951)"><g><path d="M 6.90625 -56.171875 C 6.90625 -67.765625 8.640625 -77.488281 12.109375 -85.34375 C 14.691406 -91.144531 18.21875 -96.34375 22.6875 -100.9375 C 27.164062 -105.539062 32.070312 -108.957031 37.40625 -111.1875 C 44.488281 -114.1875 52.660156 -115.6875 61.921875 -115.6875 C 78.679688 -115.6875 92.085938 -110.488281 102.140625 -100.09375 C 112.203125 -89.695312 117.234375 -75.238281 117.234375 -56.71875 C 117.234375 -38.351562 112.242188 -23.984375 102.265625 -13.609375 C 92.285156 -3.242188 78.941406 1.9375 62.234375 1.9375 C 45.316406 1.9375 31.863281 -3.21875 21.875 -13.53125 C 11.894531 -23.851562 6.90625 -38.066406 6.90625 -56.171875 Z M 30.578125 -56.953125 C 30.578125 -44.066406 33.550781 -34.300781 39.5 -27.65625 C 45.445312 -21.007812 53 -17.6875 62.15625 -17.6875 C 71.3125 -17.6875 78.820312 -20.984375 84.6875 -27.578125 C 90.5625 -34.171875 93.5 -44.066406 93.5 -57.265625 C 93.5 -70.296875 90.640625 -80.019531 84.921875 -86.4375 C 79.203125 -92.851562 71.613281 -96.0625 62.15625 -96.0625 C 52.6875 -96.0625 45.054688 -92.8125 39.265625 -86.3125 C 33.472656 -79.820312 30.578125 -70.035156 30.578125 -56.953125 Z M 30.578125 -56.953125 "/></g></g></g><g fill="#ffffff" fill-opacity="1"><g transform="translate(1148.784633, 138.987951)"><g><path d="M 5.734375 -37.015625 L 28.09375 -39.1875 C 29.4375 -31.6875 32.160156 -26.175781 36.265625 -22.65625 C 40.378906 -19.132812 45.929688 -17.375 52.921875 -17.375 C 60.316406 -17.375 65.890625 -18.9375 69.640625 -22.0625 C 73.390625 -25.195312 75.265625 -28.859375 75.265625 -33.046875 C 75.265625 -35.742188 74.472656 -38.035156 72.890625 -39.921875 C 71.316406 -41.804688 68.566406 -43.445312 64.640625 -44.84375 C 61.941406 -45.78125 55.8125 -47.4375 46.25 -49.8125 C 33.9375 -52.863281 25.296875 -56.613281 20.328125 -61.0625 C 13.347656 -67.320312 9.859375 -74.953125 9.859375 -83.953125 C 9.859375 -89.742188 11.5 -95.160156 14.78125 -100.203125 C 18.0625 -105.253906 22.789062 -109.097656 28.96875 -111.734375 C 35.15625 -114.367188 42.617188 -115.6875 51.359375 -115.6875 C 65.640625 -115.6875 76.382812 -112.554688 83.59375 -106.296875 C 90.8125 -100.035156 94.601562 -91.679688 94.96875 -81.234375 L 72 -80.234375 C 71.019531 -86.078125 68.910156 -90.273438 65.671875 -92.828125 C 62.441406 -95.390625 57.59375 -96.671875 51.125 -96.671875 C 44.457031 -96.671875 39.234375 -95.300781 35.453125 -92.5625 C 33.023438 -90.800781 31.8125 -88.445312 31.8125 -85.5 C 31.8125 -82.8125 32.945312 -80.507812 35.21875 -78.59375 C 38.125 -76.164062 45.160156 -73.628906 56.328125 -70.984375 C 67.503906 -68.347656 75.769531 -65.617188 81.125 -62.796875 C 86.476562 -59.984375 90.664062 -56.132812 93.6875 -51.25 C 96.71875 -46.363281 98.234375 -40.320312 98.234375 -33.125 C 98.234375 -26.613281 96.421875 -20.507812 92.796875 -14.8125 C 89.179688 -9.125 84.0625 -4.894531 77.4375 -2.125 C 70.8125 0.632812 62.5625 2.015625 52.6875 2.015625 C 38.300781 2.015625 27.253906 -1.304688 19.546875 -7.953125 C 11.835938 -14.597656 7.234375 -24.285156 5.734375 -37.015625 Z M 5.734375 -37.015625 "/></g></g></g></g></g></g></svg>